<svg width="512" height="512" viewBox="0 0 512 512" fill="none" xmlns="http://www.w3.org/2000/svg">
  <!-- Burst Shape -->
  <path d="M256 0L293.4 35.6L343.6 23.4L364.5 70.4L415.8 82.8L418.7 134.2L463 165.5L446.5 214.3L480 256L446.5 297.7L463 346.5L418.7 377.8L415.8 429.2L364.5 441.6L343.6 488.6L293.4 476.4L256 512L218.6 476.4L168.4 488.6L147.5 441.6L96.2 429.2L93.3 377.8L49 346.5L65.5 297.7L32 256L65.5 214.3L49 165.5L93.3 134.2L96.2 82.8L147.5 70.4L168.4 23.4L218.6 35.6L256 0Z" fill="#F97316"/>
  
  <!-- Price Tag Icon (White) centered inside -->
  <path d="M220 160H304L352 240L288 336L220 336C208.954 336 200 327.046 200 316V180C200 168.954 208.954 160 220 160Z" fill="white" stroke="white" stroke-width="20" stroke-linejoin="round"/>
  <circle cx="240" cy="200" r="15" fill="#F97316"/>
</svg>
